<svg xmlns="http://www.w3.org/2000/svg" width="480pt" height="290pt" viewBox="0 0 480 290" version="1.1" xmlns:xlink="http://www.w3.org/1999/xlink">
  <g id="surface2" transform="matrix(1,0,0,1,0,0)">
    <path style="stroke:none;fill-rule:evenodd;fill:rgb(90.980392%,49.019608%,11.764706%);fill-opacity:1" d="M 226.101562 159.199219 C 221.933594 159.566406 219.648438 161.832031 219.250000 166.000000 C 219.617188 170.132812 221.882812 172.417969 226.050781 172.851562 C 230.183594 172.449219 232.464844 170.183594 232.898438 166.050781 C 232.500000 161.882812 230.234375 159.601562 226.101562 159.199219 "/>
    <path style="stroke:none;fill-rule:evenodd;fill:rgb(90.980392%,49.019608%,11.764706%);fill-opacity:1" d="M 231.949219 147.449219 C 237.683594 145.449219 241.917969 142.250000 244.648438 137.851562 C 247.417969 133.417969 249.183594 129.101562 249.949219 124.898438 C 250.750000 120.667969 251.082031 117.867188 250.949219 116.500000 C 247.882812 125.066406 243.765625 131.167969 238.601562 134.800781 C 233.433594 138.464844 227.917969 139.449219 222.050781 137.750000 C 217.515625 136.449219 214.015625 133.632812 211.550781 129.300781 C 212.449219 139.066406 216.167969 145.234375 222.699219 147.800781 C 222.433594 147.867188 222.167969 147.933594 221.898438 148.000000 C 215.800781 149.933594 210.867188 153.550781 207.101562 158.851562 C 203.300781 164.183594 201.601562 170.214844 202.000000 176.949219 C 205.867188 167.082031 213.214844 160.714844 224.050781 157.851562 C 235.082031 155.882812 244.433594 158.582031 252.101562 165.949219 C 250.632812 161.082031 248.082031 157.000000 244.449219 153.699219 C 240.851562 150.398438 236.683594 148.316406 231.949219 147.449219 "/>
    <path style="stroke:none;fill-rule:evenodd;fill:rgb(90.980392%,49.019608%,11.764706%);fill-opacity:1" d="M 253.398438 66.750000 C 257.535156 66.351562 259.816406 64.082031 260.250000 59.949219 C 259.851562 55.785156 257.582031 53.500000 253.449219 53.101562 C 249.285156 53.464844 247.000000 55.734375 246.601562 59.898438 C 246.964844 64.035156 249.234375 66.316406 253.398438 66.750000 "/>
    <path style="stroke:none;fill-rule:evenodd;fill:rgb(90.980392%,49.019608%,11.764706%);fill-opacity:1" d="M 277.449219 48.949219 C 273.582031 58.851562 266.234375 65.214844 255.398438 68.050781 C 244.367188 70.015625 235.015625 67.316406 227.351562 59.949219 C 228.816406 64.816406 231.367188 68.898438 235.000000 72.199219 C 238.601562 75.500000 242.765625 77.601562 247.500000 78.500000 C 241.765625 80.464844 237.535156 83.667969 234.800781 88.101562 C 232.066406 92.500000 230.300781 96.800781 229.500000 101.000000 C 228.699219 105.234375 228.367188 108.035156 228.500000 109.398438 C 231.566406 100.832031 235.699219 94.734375 240.898438 91.101562 C 246.066406 87.464844 251.566406 86.484375 257.398438 88.148438 C 261.933594 89.449219 265.433594 92.265625 267.898438 96.601562 C 267.000000 86.832031 263.285156 80.667969 256.750000 78.101562 C 257.015625 78.035156 257.285156 77.964844 257.550781 77.898438 C 263.648438 75.964844 268.582031 72.351562 272.351562 67.050781 C 276.148438 61.750000 277.851562 55.714844 277.449219 48.949219 "/>
    <path style="stroke:none;fill-rule:evenodd;fill:rgb(58.431373%,58.039216%,51.764706%);fill-opacity:1" d="M 296.000000 104.300781 C 299.398438 101.867188 300.250000 98.765625 298.550781 95.000000 C 296.117188 91.566406 293.015625 90.714844 289.250000 92.449219 C 285.816406 94.851562 284.964844 97.949219 286.699219 101.750000 C 289.101562 105.148438 292.199219 106.000000 296.000000 104.300781 "/>
    <path style="stroke:none;fill-rule:evenodd;fill:rgb(58.431373%,58.039216%,51.764706%);fill-opacity:1" d="M 286.601562 104.148438 C 283.000000 100.082031 280.617188 95.566406 279.449219 90.601562 C 278.285156 85.667969 278.332031 80.734375 279.601562 75.800781 C 276.132812 79.500000 273.867188 83.750000 272.800781 88.550781 C 271.734375 93.316406 272.015625 97.964844 273.648438 102.500000 C 269.050781 98.535156 264.148438 96.464844 258.949219 96.300781 C 253.750000 96.132812 249.132812 96.765625 245.101562 98.199219 C 241.066406 99.601562 238.484375 100.699219 237.351562 101.500000 C 246.316406 99.898438 253.667969 100.417969 259.398438 103.050781 C 265.132812 105.714844 268.734375 110.015625 270.199219 115.949219 C 271.332031 120.484375 270.632812 124.917969 268.101562 129.250000 C 276.132812 123.582031 279.632812 117.285156 278.601562 110.351562 C 278.765625 110.550781 278.949219 110.750000 279.148438 110.949219 C 283.882812 115.250000 289.484375 117.714844 295.949219 118.351562 C 302.449219 118.949219 308.535156 117.398438 314.199219 113.699219 C 309.167969 114.500000 304.234375 114.101562 299.398438 112.500000 C 294.566406 110.898438 290.300781 108.117188 286.601562 104.148438 "/>
    <path style="stroke:none;fill-rule:evenodd;fill:rgb(58.431373%,58.039216%,51.764706%);fill-opacity:1" d="M 183.500000 121.699219 C 180.066406 124.101562 179.214844 127.199219 180.949219 131.000000 C 183.351562 134.398438 186.449219 135.250000 190.250000 133.550781 C 193.648438 131.117188 194.500000 128.015625 192.800781 124.250000 C 190.367188 120.816406 187.265625 119.964844 183.500000 121.699219 "/>
    <path style="stroke:none;fill-rule:evenodd;fill:rgb(58.431373%,58.039216%,51.764706%);fill-opacity:1" d="M 209.300781 110.000000 C 208.132812 105.433594 208.832031 101.000000 211.398438 96.699219 C 203.367188 102.367188 199.867188 108.667969 200.898438 115.601562 C 200.699219 115.398438 200.500000 115.199219 200.300781 115.000000 C 195.601562 110.699219 190.000000 108.234375 183.500000 107.601562 C 177.035156 107.000000 170.964844 108.550781 165.300781 112.250000 C 170.300781 111.449219 175.214844 111.851562 180.050781 113.449219 C 184.882812 115.050781 189.148438 117.832031 192.851562 121.800781 C 196.484375 125.867188 198.882812 130.367188 200.050781 135.300781 C 201.214844 140.265625 201.167969 145.214844 199.898438 150.148438 C 203.367188 146.449219 205.632812 142.199219 206.699219 137.398438 C 207.734375 132.632812 207.449219 127.964844 205.851562 123.398438 C 210.449219 127.367188 215.351562 129.449219 220.550781 129.648438 C 225.714844 129.816406 230.332031 129.183594 234.398438 127.750000 C 238.433594 126.351562 241.015625 125.234375 242.148438 124.398438 C 233.183594 126.035156 225.832031 125.515625 220.101562 122.851562 C 214.367188 120.214844 210.765625 115.933594 209.300781 110.000000 "/>
    <path style="stroke:none;fill-rule:evenodd;fill:rgb(0.000000%,40.392157%,69.411765%);fill-opacity:1" d="M 197.398438 80.300781 C 201.167969 82.066406 204.265625 81.250000 206.699219 77.851562 C 208.464844 74.050781 207.648438 70.949219 204.250000 68.550781 C 200.449219 66.785156 197.351562 67.601562 194.949219 71.000000 C 193.183594 74.765625 194.000000 77.867188 197.398438 80.300781 "/>
    <path style="stroke:none;fill-rule:evenodd;fill:rgb(0.000000%,40.392157%,69.411765%);fill-opacity:1" d="M 227.300781 85.050781 C 230.667969 81.816406 234.851562 80.214844 239.851562 80.250000 C 230.949219 76.117188 223.750000 76.234375 218.250000 80.601562 C 218.351562 80.332031 218.433594 80.066406 218.500000 79.800781 C 219.867188 73.566406 219.199219 67.484375 216.500000 61.550781 C 213.765625 55.617188 209.382812 51.132812 203.351562 48.101562 C 209.984375 56.398438 211.816406 65.949219 208.851562 76.750000 C 205.050781 87.285156 198.050781 94.035156 187.851562 97.000000 C 192.785156 98.167969 197.582031 98.000000 202.250000 96.500000 C 206.917969 95.035156 210.816406 92.464844 213.949219 88.800781 C 212.816406 94.765625 213.464844 100.035156 215.898438 104.601562 C 218.367188 109.199219 221.214844 112.898438 224.449219 115.699219 C 227.714844 118.464844 229.984375 120.148438 231.250000 120.750000 C 225.351562 113.785156 222.117188 107.148438 221.550781 100.851562 C 220.984375 94.550781 222.898438 89.285156 227.300781 85.050781 "/>
    <path style="stroke:none;fill-rule:evenodd;fill:rgb(0.000000%,40.392157%,69.411765%);fill-opacity:1" d="M 282.101562 145.648438 C 278.300781 143.882812 275.199219 144.699219 272.800781 148.101562 C 271.035156 151.867188 271.851562 154.964844 275.250000 157.398438 C 279.015625 159.167969 282.117188 158.351562 284.550781 154.949219 C 286.316406 151.148438 285.500000 148.050781 282.101562 145.648438 "/>
    <path style="stroke:none;fill-rule:evenodd;fill:rgb(0.000000%,40.392157%,69.411765%);fill-opacity:1" d="M 270.648438 149.199219 C 274.449219 138.667969 281.449219 131.917969 291.648438 128.949219 C 286.714844 127.816406 281.917969 127.984375 277.250000 129.449219 C 272.582031 130.917969 268.683594 133.484375 265.550781 137.148438 C 266.683594 131.183594 266.035156 125.917969 263.601562 121.351562 C 261.132812 116.750000 258.285156 113.066406 255.050781 110.300781 C 251.785156 107.500000 249.515625 105.816406 248.250000 105.250000 C 254.148438 112.183594 257.382812 118.800781 257.949219 125.101562 C 258.515625 131.398438 256.601562 136.667969 252.199219 140.898438 C 248.832031 144.167969 244.648438 145.785156 239.648438 145.750000 C 248.550781 149.882812 255.750000 149.750000 261.250000 145.351562 C 261.183594 145.617188 261.117188 145.882812 261.050781 146.148438 C 259.648438 152.417969 260.316406 158.500000 263.050781 164.398438 C 265.750000 170.332031 270.117188 174.832031 276.148438 177.898438 C 269.515625 169.566406 267.683594 160.000000 270.648438 149.199219 "/>
  </g>
  <g id="surface4">
    <text style="fill:rgb(0,103,177)" font-family="Albertus Medium" font-size="44" transform="matrix(1,0,0,1,5.099999999999994,228.15)" xml:space="preserve"><![CDATA[Zealand Communication]]></text>
  </g>
</svg>